<?xml version="1.0" encoding="utf-8"?>
<!-- Svg Vector Icons : http://www.onlinewebfonts.com/icon -->
<!DOCTYPE svg PUBLIC "-//W3C//DTD SVG 1.1//EN" "http://www.w3.org/Graphics/SVG/1.1/DTD/svg11.dtd">
<svg version="1.1" xmlns="http://www.w3.org/2000/svg" xmlns:xlink="http://www.w3.org/1999/xlink" x="0px" y="0px" viewBox="0 0 1000 1000" enable-background="new 0 0 1000 1000" xml:space="preserve">
<metadata> Svg Vector Icons : http://www.onlinewebfonts.com/icon </metadata>
<g><path d="M659.5,893.9H10c15.4-123,103.8-226.7,215.2-265.2C163.7,594.2,121.5,525,121.5,448.1c0-115.3,96.1-211.4,211.4-211.4c115.3,0,211.4,96.1,211.4,211.4c0,76.9-42.3,146-103.8,180.6C555.7,667.2,640.3,770.9,659.5,893.9z"/><path d="M990,767.1H648c-38.4-65.3-92.2-119.1-165.3-146c61.5-34.6,96.1-99.9,96.1-176.8c0-84.5-46.1-165.3-115.3-199.8c26.9-84.5,103.8-138.4,199.8-138.4c115.3,0,211.4,96.1,211.4,211.4c0,76.9-42.3,146-103.8,180.6C886.2,544.2,970.8,644.1,990,767.1L990,767.1z"/></g>
</svg>